<svg xmlns="http://www.w3.org/2000/svg" viewBox="1351 -1785 64 42"><defs><style>.a{fill:#fff;}</style></defs><g transform="translate(1350.5 -1785.5)"><path class="a" d="M46.752,17.429h2.562v3.89h.243l2.609-3.89h2.565v7.9H52.166v-3.89h-.243l-2.61,3.89H46.752Z"/><path class="a" d="M18.689,19.588V17.429h7.643v2.159h-2.5v5.745H21.189V19.588Z"/><path class="a" d="M13.863,17.229c2.048,0,3.52,1.141,3.688,2.874h-2.6a.981.981,0,0,0-1.076-.713c-1.076,0-1.457.911-1.457,1.991s.395,1.991,1.457,1.991a1.03,1.03,0,0,0,1.153-.868h2.594a3.473,3.473,0,0,1-3.763,3.027,3.842,3.842,0,0,1-4.079-4.15A3.851,3.851,0,0,1,13.863,17.229Z"/><path class="a" d="M.5,17.429H3.063v3.89h.245l2.61-3.89H8.481v7.9H5.917v-3.89H5.672l-2.61,3.89H.5Z"/><path class="a" d="M64.5,25.333H62.057v-3.89h-.243L59.2,25.333H56.64v-7.9H59.2v3.89h.243l2.61-3.89H64.5Z"/><path class="a" d="M41.9,17.229a2.212,2.212,0,0,0-1.985.9h-.3v-.7H37.042V28.373h2.641V24.634h.3a2.076,2.076,0,0,0,1.908.9c2.157,0,3.461-1.732,3.461-4.15S44.052,17.229,41.9,17.229Zm-.726,6.143c-1.11,0-1.594-.926-1.594-1.991s.485-1.991,1.594-1.991,1.545.926,1.545,1.991S42.275,23.372,41.169,23.372Z"/><path class="a" d="M31.264,17.229a3.927,3.927,0,0,0-4.215,4.152,3.926,3.926,0,0,0,4.215,4.15,3.907,3.907,0,0,0,4.2-4.15A3.908,3.908,0,0,0,31.264,17.229Zm0,6.143c-1.108,0-1.579-.881-1.579-1.991,0-1.094.471-1.991,1.579-1.991s1.561.9,1.561,1.991C32.824,22.491,32.371,23.372,31.264,23.372Z"/><path class="a" d="M43.99.5c.045.35.319.7.972.7s.924-.35.969-.7h2c-.107,1.46-1.122,2.325-2.972,2.325S42.094,1.945,41.987.5Z"/><path class="a" d="M26.411,8.221h-1.23V6.549h1.153c.589,0,.911-.183.911-.592,0-.382-.413-.625-1.124-.625-.729,0-1.153.26-1.214.686h-2.38c.183-1.916,1.759-2.767,3.807-2.767,2.155,0,3.5.958,3.5,2.325a1.5,1.5,0,0,1-.8,1.507v.3a1.52,1.52,0,0,1,1.015,1.6c0,1.535-1.532,2.57-3.747,2.57-2.61,0-3.869-1.035-4.035-2.812h2.4c.139.546.746.731,1.47.731.788,0,1.276-.216,1.276-.686C27.41,8.359,27.063,8.221,26.411,8.221Z"/><path class="a" d="M15.532,3.449l1.776,3.83h.423l1.593-3.83h2.609l-4.78,10.943H14.545L16.2,10.485l-3.3-7.037Z"/><path class="a" d="M.5.5H4.6L5.977,4.74h.3L7.658.5h4.1V11.353H9.163V3.705h-.3L7.448,7.919H4.808L3.4,3.705h-.3v7.648H.5Z"/><path class="a" d="M48.83,11.353H46.387V7.462h-.243l-2.609,3.891H40.97v-7.9h2.565V7.34h.243l2.61-3.891h2.446Z"/><path class="a" d="M39.394,7.143A3.649,3.649,0,0,0,35.4,3.251,3.826,3.826,0,0,0,31.325,7.4a3.851,3.851,0,0,0,4.14,4.149C37.71,11.55,39,10.5,39.332,8.8H36.664c-.168.394-.516.592-1.154.592-.985,0-1.486-.576-1.579-1.641h5.462Zm-5.355-.974A1.285,1.285,0,0,1,35.4,5.136a1.179,1.179,0,0,1,1.289,1.033Z"/><path class="a" d="M9.815,42.3l1.547-3.25L8.656,33.948H3.32V42.3H.5V31.453h9.752L12.5,35.786h.426l2.047-4.334h2.8L12.592,42.3Z"/><path class="a" d="M25.24,42.3V33.947H22.284v2.4c0,5.135-1.321,5.947-4.046,5.956h-.492V39.569h.426c1.108,0,1.5-.211,1.5-3.3V31.453h8.389V42.3Z"/><path class="a" d="M41.3,42.3V31.453H49.39v2.495H44.126V42.3Z"/><path class="a" d="M36.861,31.453H32.6L29.353,42.3H32.1l.772-2.808h3.641L37.3,42.3h2.807Zm-3.385,5.822.884-3.144h.666l.866,3.144Z"/><path class="a" d="M56.13,42.3l0-5.484a2.394,2.394,0,0,0-.4-1.383,3.725,3.725,0,0,0-3.232-1.233c-2.034,0-3.462,1.018-3.507,2.554H51.6c.061-.424.381-.685,1.047-.685s1.076.26,1.076,1.005v.136H51.9c-2.4,0-3.321,1.4-3.321,2.628A2.532,2.532,0,0,0,50.306,42.3a4.361,4.361,0,0,0,1.173.2,3.3,3.3,0,0,0,1.115-.2,2.5,2.5,0,0,0,.93-.635h.3V42.3Zm-2.41-3.069a1.284,1.284,0,0,1-1.38,1.324c-.7,0-1.123-.3-1.123-.9,0-.563.5-.883,1.23-.883H53.72Z"/></g></svg>