<svg id="Слой_1" xmlns="http://www.w3.org/2000/svg" viewBox="0 0 576.5 333.3"><style>.st0{fill:#fff}</style><path class="st0" d="M211.4 280h-4.7v30.4h5.5c30.3-.1 45-9.1 45-66.1v-26.6H290v92.7h31.4V190h-93.3v53.5c0 34.2-4.3 36.6-16.7 36.5M110.9 151.4h28.7v-120H92.9L79.7 74.9H75L61.7 31.4H15v120h28.7V70.2h4.7L62 113.4h30.6l13.6-43.2h4.7v81.2zm65 38.6l-22.8 48.1h-4.7l-25-48.1H15v120.4h31.3v-92.7h59.3l30.1 56.7-17.2 36.1h30.9L207.1 190h-31.2zm41.7-82.3c0 12.3-5.2 22-17.3 22-12.3 0-17.5-9.8-17.5-22 0-12.1 5.2-22 17.5-22 12.1 0 17.3 9.9 17.3 22m29.2 0c0-28.2-18.5-45.9-46.6-45.9-27.9 0-46.7 17.6-46.7 45.9s18.8 45.9 46.7 45.9c28.2 0 46.6-17.7 46.6-45.9m90.4-76.3H315c-1.2 3.5-3.9 7.7-11.1 7.7s-9.9-4.2-11.1-7.7h-22.2c2 15.5 12.6 25.7 33.3 25.7s31.2-10.3 33.3-25.7m-17.6 120H348V64h-24.7L292 103.7h-4V64h-28.4v87.4h24.7l31.3-39.7h4v39.7zm88.8 103.2h-26.9l9.8-34.9h7.4l9.7 34.9zm15.7 55.8h31.2L419.2 190h-47.4l-36.1 120.4h30.5l8.6-31.2h40.5l8.8 31.2zm134.4-92.7V190h-89.9v120.4H500v-92.7h58.5z"/></svg>